G04*
G04 #@! TF.GenerationSoftware,Altium Limited,Altium Designer,20.0.13 (296)*
G04*
G04 Layer_Color=16711935*
%FSLAX44Y44*%
%MOMM*%
G71*
G01*
G75*
%ADD66C,2.7032*%
%ADD67C,1.7200*%
%ADD68R,1.7200X1.7200*%
%ADD69C,4.7032*%
%ADD70C,1.5200*%
%ADD71R,1.5200X1.5200*%
%ADD72R,1.5200X1.5200*%
%ADD73C,3.4532*%
%ADD74C,2.6482*%
%ADD75C,1.7332*%
%ADD76C,1.6012*%
%ADD77R,1.6012X1.6012*%
%ADD78C,1.7032*%
%ADD79R,1.7032X1.7032*%
D66*
X233250Y50000D02*
D03*
X208250Y100000D02*
D03*
X183250Y50000D02*
D03*
X158250Y100000D02*
D03*
X279000D02*
D03*
X304000Y50000D02*
D03*
X329000Y100000D02*
D03*
X354000Y50000D02*
D03*
X241500Y576000D02*
D03*
X216500Y626000D02*
D03*
D67*
X56750Y251600D02*
D03*
Y277000D02*
D03*
X353250Y375650D02*
D03*
Y350250D02*
D03*
D68*
X56750Y226200D02*
D03*
X353250Y324850D02*
D03*
D69*
X40250Y451750D02*
D03*
Y101500D02*
D03*
X486750Y103500D02*
D03*
Y484000D02*
D03*
D70*
X326000Y655500D02*
D03*
X422000Y258500D02*
D03*
D71*
X326000Y605500D02*
D03*
D72*
X472000Y258500D02*
D03*
D73*
X159900Y623000D02*
D03*
X45600D02*
D03*
D74*
X25300Y592500D02*
D03*
X180200D02*
D03*
D75*
X61900Y672000D02*
D03*
X36500D02*
D03*
X143600D02*
D03*
X169000D02*
D03*
D76*
X58350Y534100D02*
D03*
X71050Y559500D02*
D03*
X83750Y534100D02*
D03*
X96450Y559500D02*
D03*
X109150Y534100D02*
D03*
X121850Y559500D02*
D03*
X134550Y534100D02*
D03*
D77*
X147250Y559500D02*
D03*
D78*
X27750Y287450D02*
D03*
Y312850D02*
D03*
Y338250D02*
D03*
Y363650D02*
D03*
D79*
Y389050D02*
D03*
M02*
