G04*
G04 #@! TF.GenerationSoftware,Altium Limited,Altium Designer,20.0.13 (296)*
G04*
G04 Layer_Color=8388736*
%FSLAX44Y44*%
%MOMM*%
G71*
G01*
G75*
%ADD43R,1.0200X0.8200*%
%ADD44R,1.2032X1.0032*%
%ADD45R,0.8200X1.0200*%
%ADD46R,1.6032X1.2032*%
%ADD47R,1.0032X1.2032*%
%ADD48R,1.5032X1.3032*%
%ADD49R,1.7032X1.1032*%
%ADD50R,1.2032X1.6032*%
%ADD51R,1.6200X2.5200*%
%ADD52R,2.3200X0.7200*%
%ADD53R,2.5200X1.6200*%
G04:AMPARAMS|DCode=54|XSize=0.504mm|YSize=0.914mm|CornerRadius=0.182mm|HoleSize=0mm|Usage=FLASHONLY|Rotation=45.000|XOffset=0mm|YOffset=0mm|HoleType=Round|Shape=RoundedRectangle|*
%AMROUNDEDRECTD54*
21,1,0.5040,0.5500,0,0,45.0*
21,1,0.1400,0.9140,0,0,45.0*
1,1,0.3640,0.2439,-0.1450*
1,1,0.3640,0.1450,-0.2439*
1,1,0.3640,-0.2439,0.1450*
1,1,0.3640,-0.1450,0.2439*
%
%ADD54ROUNDEDRECTD54*%
G04:AMPARAMS|DCode=55|XSize=0.4832mm|YSize=0.8932mm|CornerRadius=0.1716mm|HoleSize=0mm|Usage=FLASHONLY|Rotation=45.000|XOffset=0mm|YOffset=0mm|HoleType=Round|Shape=RoundedRectangle|*
%AMROUNDEDRECTD55*
21,1,0.4832,0.5500,0,0,45.0*
21,1,0.1400,0.8932,0,0,45.0*
1,1,0.3432,0.2439,-0.1450*
1,1,0.3432,0.1450,-0.2439*
1,1,0.3432,-0.2439,0.1450*
1,1,0.3432,-0.1450,0.2439*
%
%ADD55ROUNDEDRECTD55*%
G04:AMPARAMS|DCode=56|XSize=0.504mm|YSize=0.914mm|CornerRadius=0.182mm|HoleSize=0mm|Usage=FLASHONLY|Rotation=135.000|XOffset=0mm|YOffset=0mm|HoleType=Round|Shape=RoundedRectangle|*
%AMROUNDEDRECTD56*
21,1,0.5040,0.5500,0,0,135.0*
21,1,0.1400,0.9140,0,0,135.0*
1,1,0.3640,0.1450,0.2439*
1,1,0.3640,0.2439,0.1450*
1,1,0.3640,-0.1450,-0.2439*
1,1,0.3640,-0.2439,-0.1450*
%
%ADD56ROUNDEDRECTD56*%
%ADD57P,3.5203X4X90.0*%
G04:AMPARAMS|DCode=58|XSize=1.784mm|YSize=0.504mm|CornerRadius=0.147mm|HoleSize=0mm|Usage=FLASHONLY|Rotation=90.000|XOffset=0mm|YOffset=0mm|HoleType=Round|Shape=RoundedRectangle|*
%AMROUNDEDRECTD58*
21,1,1.7840,0.2100,0,0,90.0*
21,1,1.4900,0.5040,0,0,90.0*
1,1,0.2940,0.1050,0.7450*
1,1,0.2940,0.1050,-0.7450*
1,1,0.2940,-0.1050,-0.7450*
1,1,0.2940,-0.1050,0.7450*
%
%ADD58ROUNDEDRECTD58*%
G04:AMPARAMS|DCode=59|XSize=1.784mm|YSize=0.504mm|CornerRadius=0.147mm|HoleSize=0mm|Usage=FLASHONLY|Rotation=180.000|XOffset=0mm|YOffset=0mm|HoleType=Round|Shape=RoundedRectangle|*
%AMROUNDEDRECTD59*
21,1,1.7840,0.2100,0,0,180.0*
21,1,1.4900,0.5040,0,0,180.0*
1,1,0.2940,-0.7450,0.1050*
1,1,0.2940,0.7450,0.1050*
1,1,0.2940,0.7450,-0.1050*
1,1,0.2940,-0.7450,-0.1050*
%
%ADD59ROUNDEDRECTD59*%
%ADD60R,1.3400X0.7400*%
%ADD61R,10.5700X8.4200*%
%ADD62R,1.1700X3.3200*%
%ADD63R,1.2200X1.3700*%
%ADD64R,4.2032X7.2032*%
%ADD65R,2.9972X4.0132*%
%ADD66C,2.7032*%
%ADD67C,1.7200*%
%ADD68R,1.7200X1.7200*%
%ADD69C,4.7032*%
%ADD70C,1.5200*%
%ADD71R,1.5200X1.5200*%
%ADD72R,1.5200X1.5200*%
%ADD73C,3.4532*%
%ADD74C,2.6482*%
%ADD75C,1.7332*%
%ADD76C,1.6012*%
%ADD77R,1.6012X1.6012*%
%ADD78C,1.7032*%
%ADD79R,1.7032X1.7032*%
G36*
X412750Y143875D02*
Y137125D01*
X399625D01*
Y143875D01*
X412750D01*
D02*
G37*
G36*
Y162875D02*
Y156125D01*
X399625D01*
Y162875D01*
X412750D01*
D02*
G37*
G36*
X435875Y143875D02*
Y137125D01*
X422750D01*
Y143875D01*
X435875D01*
D02*
G37*
G36*
Y153375D02*
Y146625D01*
X422750D01*
Y153375D01*
X435875D01*
D02*
G37*
G36*
Y162875D02*
Y156125D01*
X422750D01*
Y162875D01*
X435875D01*
D02*
G37*
G36*
X436125Y190375D02*
X423000D01*
Y197125D01*
X436125D01*
Y190375D01*
D02*
G37*
G36*
X413000D02*
X399875D01*
Y197125D01*
X413000D01*
Y190375D01*
D02*
G37*
G36*
X436125Y180875D02*
X423000D01*
Y187625D01*
X436125D01*
Y180875D01*
D02*
G37*
G36*
Y171375D02*
X423000D01*
Y178125D01*
X436125D01*
Y171375D01*
D02*
G37*
G36*
X413000D02*
X399875D01*
Y178125D01*
X413000D01*
Y171375D01*
D02*
G37*
D43*
X409250Y58250D02*
D03*
Y74250D02*
D03*
X393500Y74000D02*
D03*
Y58000D02*
D03*
X109750Y55250D02*
D03*
Y71250D02*
D03*
X94000Y71250D02*
D03*
Y55250D02*
D03*
X409000Y37750D02*
D03*
Y21750D02*
D03*
X87000Y36250D02*
D03*
Y20250D02*
D03*
X393500Y37750D02*
D03*
Y21750D02*
D03*
X103000Y36250D02*
D03*
Y20250D02*
D03*
X383500Y157250D02*
D03*
Y141250D02*
D03*
X372000Y261000D02*
D03*
Y277000D02*
D03*
X372000Y228750D02*
D03*
Y244750D02*
D03*
X358000Y228750D02*
D03*
Y244750D02*
D03*
Y261000D02*
D03*
Y277000D02*
D03*
X211500Y146750D02*
D03*
Y162750D02*
D03*
X151250Y163250D02*
D03*
Y147250D02*
D03*
X260250Y410500D02*
D03*
Y426500D02*
D03*
X188500Y410250D02*
D03*
Y426250D02*
D03*
X166500Y475250D02*
D03*
Y459250D02*
D03*
Y487250D02*
D03*
Y503250D02*
D03*
X232750Y541750D02*
D03*
Y525750D02*
D03*
X217500Y541750D02*
D03*
Y525750D02*
D03*
X263500Y541750D02*
D03*
Y525750D02*
D03*
X248000Y541750D02*
D03*
Y525750D02*
D03*
X363250Y566750D02*
D03*
Y550750D02*
D03*
D44*
X358750Y149500D02*
D03*
Y165500D02*
D03*
X299300Y387500D02*
D03*
Y403500D02*
D03*
X377250Y193750D02*
D03*
Y177750D02*
D03*
X260000Y150750D02*
D03*
Y166750D02*
D03*
X244000Y150750D02*
D03*
Y166750D02*
D03*
X228000Y150500D02*
D03*
Y166500D02*
D03*
X215250Y416250D02*
D03*
Y400250D02*
D03*
X96500Y498119D02*
D03*
Y482119D02*
D03*
X80250Y498119D02*
D03*
Y482119D02*
D03*
X91500Y387000D02*
D03*
Y371000D02*
D03*
X233250Y416250D02*
D03*
Y400250D02*
D03*
X508750Y202750D02*
D03*
Y186750D02*
D03*
X509250Y226250D02*
D03*
Y242250D02*
D03*
X509750Y279500D02*
D03*
Y295500D02*
D03*
D45*
X306750Y146000D02*
D03*
X290750D02*
D03*
X324500D02*
D03*
X340500D02*
D03*
X54500Y384500D02*
D03*
X70500D02*
D03*
X54500Y399750D02*
D03*
X70500D02*
D03*
X111500Y413500D02*
D03*
X127500D02*
D03*
X286750Y560000D02*
D03*
X302750D02*
D03*
X166500Y445000D02*
D03*
X150500D02*
D03*
X278750Y509750D02*
D03*
X294750D02*
D03*
X196500Y498500D02*
D03*
X180500D02*
D03*
X208500D02*
D03*
X224500D02*
D03*
D46*
X319300Y385500D02*
D03*
Y405500D02*
D03*
D47*
X291000Y165000D02*
D03*
X307000D02*
D03*
X338250Y185500D02*
D03*
X322250D02*
D03*
X340500Y165000D02*
D03*
X324500D02*
D03*
X113000Y185750D02*
D03*
X97000D02*
D03*
X113000Y169500D02*
D03*
X97000D02*
D03*
X113000Y153500D02*
D03*
X97000D02*
D03*
X82500Y208000D02*
D03*
X98500D02*
D03*
X129600Y247050D02*
D03*
X113600D02*
D03*
X129600Y230800D02*
D03*
X113600D02*
D03*
X134750Y370750D02*
D03*
X118750D02*
D03*
X289500Y462750D02*
D03*
X305500D02*
D03*
X122400Y432800D02*
D03*
X106400D02*
D03*
X122400Y448800D02*
D03*
X106400D02*
D03*
D48*
X193000Y146000D02*
D03*
X170000D02*
D03*
Y164000D02*
D03*
X193000D02*
D03*
X169500Y408000D02*
D03*
X146500D02*
D03*
Y426000D02*
D03*
X169500D02*
D03*
D49*
X120250Y271500D02*
D03*
Y285500D02*
D03*
X89250D02*
D03*
Y271500D02*
D03*
D50*
X159500Y383750D02*
D03*
X179500D02*
D03*
D51*
X321500Y435750D02*
D03*
X292500D02*
D03*
D52*
X60500Y346300D02*
D03*
Y333600D02*
D03*
Y320900D02*
D03*
Y308200D02*
D03*
X108500Y346300D02*
D03*
Y333600D02*
D03*
Y320900D02*
D03*
Y308200D02*
D03*
D53*
X122750Y471500D02*
D03*
Y500500D02*
D03*
D54*
X219786Y481036D02*
D03*
X216250Y477500D02*
D03*
X202108Y463358D02*
D03*
X205644Y466893D02*
D03*
X212714Y473965D02*
D03*
X209179Y470429D02*
D03*
X235978Y443629D02*
D03*
X239514Y447165D02*
D03*
X232442Y440094D02*
D03*
X243050Y450701D02*
D03*
X246585Y454236D02*
D03*
D55*
X228907Y436559D02*
D03*
D56*
Y481036D02*
D03*
X232442Y477500D02*
D03*
X246585Y463358D02*
D03*
X243050Y466893D02*
D03*
X235978Y473964D02*
D03*
X239514Y470429D02*
D03*
X202108Y454236D02*
D03*
X205644Y450701D02*
D03*
X219786Y436559D02*
D03*
X216250Y440094D02*
D03*
X209179Y447165D02*
D03*
X212714Y443629D02*
D03*
D57*
X224347Y458797D02*
D03*
D58*
X179750Y359350D02*
D03*
X184750D02*
D03*
X189750D02*
D03*
X194750D02*
D03*
X199750D02*
D03*
X204750D02*
D03*
X209750D02*
D03*
X214750D02*
D03*
X219750D02*
D03*
X224750D02*
D03*
X229750D02*
D03*
X234750D02*
D03*
X239750D02*
D03*
X244750D02*
D03*
X249750D02*
D03*
X254750D02*
D03*
X259750D02*
D03*
X264750D02*
D03*
X269750D02*
D03*
X274750D02*
D03*
X279750D02*
D03*
X284750D02*
D03*
X289750D02*
D03*
X294750D02*
D03*
X299750D02*
D03*
Y205750D02*
D03*
X294750D02*
D03*
X289750D02*
D03*
X284750D02*
D03*
X279750D02*
D03*
X274750D02*
D03*
X269750D02*
D03*
X264750D02*
D03*
X259750D02*
D03*
X254750D02*
D03*
X249750D02*
D03*
X244750D02*
D03*
X239750D02*
D03*
X234750D02*
D03*
X229750D02*
D03*
X224750D02*
D03*
X219750D02*
D03*
X214750D02*
D03*
X209750D02*
D03*
X204750D02*
D03*
X199750D02*
D03*
X194750D02*
D03*
X189750D02*
D03*
X184750D02*
D03*
X179750D02*
D03*
D59*
X162950Y222550D02*
D03*
Y227550D02*
D03*
Y232550D02*
D03*
Y237550D02*
D03*
Y242550D02*
D03*
Y247550D02*
D03*
Y252550D02*
D03*
Y257550D02*
D03*
Y262550D02*
D03*
Y267550D02*
D03*
Y272550D02*
D03*
Y277550D02*
D03*
Y282550D02*
D03*
Y287550D02*
D03*
Y292550D02*
D03*
Y297550D02*
D03*
Y302550D02*
D03*
Y307550D02*
D03*
Y312550D02*
D03*
Y317550D02*
D03*
Y322550D02*
D03*
Y327550D02*
D03*
Y332550D02*
D03*
Y337550D02*
D03*
Y342550D02*
D03*
X316550D02*
D03*
Y337550D02*
D03*
Y332550D02*
D03*
Y327550D02*
D03*
Y322550D02*
D03*
Y317550D02*
D03*
Y312550D02*
D03*
Y307550D02*
D03*
Y302550D02*
D03*
Y297550D02*
D03*
Y292550D02*
D03*
Y287550D02*
D03*
Y282550D02*
D03*
Y277550D02*
D03*
Y272550D02*
D03*
Y267550D02*
D03*
Y262550D02*
D03*
Y257550D02*
D03*
Y252550D02*
D03*
Y247550D02*
D03*
Y242550D02*
D03*
Y237550D02*
D03*
Y232550D02*
D03*
Y227550D02*
D03*
Y222550D02*
D03*
D60*
X406500Y174750D02*
D03*
Y193750D02*
D03*
X429500D02*
D03*
Y184250D02*
D03*
Y174750D02*
D03*
X406250Y140500D02*
D03*
Y159500D02*
D03*
X429250D02*
D03*
Y150000D02*
D03*
Y140500D02*
D03*
D61*
X439750Y641750D02*
D03*
D62*
X473750Y547250D02*
D03*
X456750D02*
D03*
X439750D02*
D03*
X422750D02*
D03*
X405750D02*
D03*
D63*
X343750Y540250D02*
D03*
Y563250D02*
D03*
D64*
X495250Y378500D02*
D03*
X395250D02*
D03*
D65*
X423435Y488750D02*
D03*
X352065D02*
D03*
D66*
X233250Y50000D02*
D03*
X208250Y100000D02*
D03*
X183250Y50000D02*
D03*
X158250Y100000D02*
D03*
X279000D02*
D03*
X304000Y50000D02*
D03*
X329000Y100000D02*
D03*
X354000Y50000D02*
D03*
X241500Y576000D02*
D03*
X216500Y626000D02*
D03*
D67*
X56750Y251600D02*
D03*
Y277000D02*
D03*
X353250Y375650D02*
D03*
Y350250D02*
D03*
D68*
X56750Y226200D02*
D03*
X353250Y324850D02*
D03*
D69*
X40250Y451750D02*
D03*
Y101500D02*
D03*
X486750Y103500D02*
D03*
Y484000D02*
D03*
D70*
X326000Y655500D02*
D03*
X422000Y258500D02*
D03*
D71*
X326000Y605500D02*
D03*
D72*
X472000Y258500D02*
D03*
D73*
X159900Y623000D02*
D03*
X45600D02*
D03*
D74*
X25300Y592500D02*
D03*
X180200D02*
D03*
D75*
X61900Y672000D02*
D03*
X36500D02*
D03*
X143600D02*
D03*
X169000D02*
D03*
D76*
X58350Y534100D02*
D03*
X71050Y559500D02*
D03*
X83750Y534100D02*
D03*
X96450Y559500D02*
D03*
X109150Y534100D02*
D03*
X121850Y559500D02*
D03*
X134550Y534100D02*
D03*
D77*
X147250Y559500D02*
D03*
D78*
X27750Y287450D02*
D03*
Y312850D02*
D03*
Y338250D02*
D03*
Y363650D02*
D03*
D79*
Y389050D02*
D03*
M02*
