G04*
G04 #@! TF.GenerationSoftware,Altium Limited,Altium Designer,20.0.13 (296)*
G04*
G04 Layer_Physical_Order=3*
G04 Layer_Color=16440176*
%FSLAX44Y44*%
%MOMM*%
G71*
G01*
G75*
%ADD15C,0.2540*%
%ADD80C,0.4000*%
%ADD83C,2.5000*%
%ADD84C,1.6000*%
%ADD86C,4.5000*%
%ADD87C,1.4000*%
%ADD91C,2.4450*%
%ADD93C,1.3980*%
%ADD95C,1.5000*%
%ADD97C,0.8000*%
%ADD98C,0.7000*%
G36*
X521432Y3569D02*
X3569D01*
X3568Y689432D01*
X521431D01*
X521432Y3569D01*
D02*
G37*
%LPC*%
G36*
X169000Y681733D02*
X166481Y681402D01*
X164133Y680429D01*
X162118Y678882D01*
X160571Y676867D01*
X159598Y674519D01*
X159267Y672000D01*
X159598Y669481D01*
X160571Y667133D01*
X162118Y665117D01*
X164133Y663571D01*
X166481Y662598D01*
X169000Y662267D01*
X171519Y662598D01*
X173867Y663571D01*
X175882Y665117D01*
X177429Y667133D01*
X178402Y669481D01*
X178733Y672000D01*
X178402Y674519D01*
X177429Y676867D01*
X175882Y678882D01*
X173867Y680429D01*
X171519Y681402D01*
X169000Y681733D01*
D02*
G37*
G36*
X143600D02*
X141081Y681402D01*
X138733Y680429D01*
X136718Y678882D01*
X135171Y676867D01*
X134198Y674519D01*
X133867Y672000D01*
X134198Y669481D01*
X135171Y667133D01*
X136718Y665117D01*
X138733Y663571D01*
X141081Y662598D01*
X143600Y662267D01*
X146119Y662598D01*
X148467Y663571D01*
X150482Y665117D01*
X152029Y667133D01*
X153001Y669481D01*
X153333Y672000D01*
X153001Y674519D01*
X152029Y676867D01*
X150482Y678882D01*
X148467Y680429D01*
X146119Y681402D01*
X143600Y681733D01*
D02*
G37*
G36*
X61900D02*
X59381Y681402D01*
X57033Y680429D01*
X55017Y678882D01*
X53471Y676867D01*
X52498Y674519D01*
X52167Y672000D01*
X52498Y669481D01*
X53471Y667133D01*
X55017Y665117D01*
X57033Y663571D01*
X59381Y662598D01*
X61900Y662267D01*
X64419Y662598D01*
X66766Y663571D01*
X68782Y665117D01*
X70329Y667133D01*
X71301Y669481D01*
X71633Y672000D01*
X71301Y674519D01*
X70329Y676867D01*
X68782Y678882D01*
X66766Y680429D01*
X64419Y681402D01*
X61900Y681733D01*
D02*
G37*
G36*
X36500D02*
X33981Y681402D01*
X31633Y680429D01*
X29617Y678882D01*
X28071Y676867D01*
X27098Y674519D01*
X26767Y672000D01*
X27098Y669481D01*
X28071Y667133D01*
X29617Y665117D01*
X31633Y663571D01*
X33981Y662598D01*
X36500Y662267D01*
X39019Y662598D01*
X41366Y663571D01*
X43382Y665117D01*
X44929Y667133D01*
X45901Y669481D01*
X46233Y672000D01*
X45901Y674519D01*
X44929Y676867D01*
X43382Y678882D01*
X41366Y680429D01*
X39019Y681402D01*
X36500Y681733D01*
D02*
G37*
G36*
X327270Y664955D02*
Y656770D01*
X335455D01*
X335294Y657990D01*
X334333Y660311D01*
X332804Y662304D01*
X330811Y663833D01*
X328490Y664794D01*
X327270Y664955D01*
D02*
G37*
G36*
X324730D02*
X323509Y664794D01*
X321189Y663833D01*
X319196Y662304D01*
X317667Y660311D01*
X316705Y657990D01*
X316545Y656770D01*
X324730D01*
Y664955D01*
D02*
G37*
G36*
X335455Y654230D02*
X327270D01*
Y646045D01*
X328490Y646206D01*
X330811Y647167D01*
X332804Y648696D01*
X334333Y650689D01*
X335294Y653010D01*
X335455Y654230D01*
D02*
G37*
G36*
X324730D02*
X316545D01*
X316705Y653010D01*
X317667Y650689D01*
X319196Y648696D01*
X321189Y647167D01*
X323509Y646206D01*
X324730Y646045D01*
Y654230D01*
D02*
G37*
G36*
X217770Y640988D02*
Y627270D01*
X231488D01*
X231322Y628948D01*
X230462Y631783D01*
X229066Y634396D01*
X227186Y636686D01*
X224896Y638566D01*
X222283Y639962D01*
X219448Y640822D01*
X217770Y640988D01*
D02*
G37*
G36*
X215230D02*
X213552Y640822D01*
X210717Y639962D01*
X208104Y638566D01*
X205814Y636686D01*
X203934Y634396D01*
X202538Y631783D01*
X201678Y628948D01*
X201512Y627270D01*
X215230D01*
Y640988D01*
D02*
G37*
G36*
Y624730D02*
X201512D01*
X201678Y623052D01*
X202538Y620217D01*
X203934Y617604D01*
X205814Y615314D01*
X208104Y613434D01*
X210717Y612038D01*
X213552Y611178D01*
X215230Y611012D01*
Y624730D01*
D02*
G37*
G36*
X231488D02*
X217770D01*
Y611012D01*
X219448Y611178D01*
X222283Y612038D01*
X224896Y613434D01*
X227186Y615314D01*
X229066Y617604D01*
X230462Y620217D01*
X231322Y623052D01*
X231488Y624730D01*
D02*
G37*
G36*
X159900Y641339D02*
X156322Y640986D01*
X152882Y639943D01*
X149712Y638248D01*
X146933Y635967D01*
X144652Y633188D01*
X142958Y630018D01*
X141914Y626578D01*
X141562Y623000D01*
X141914Y619423D01*
X142958Y615983D01*
X144652Y612812D01*
X146933Y610033D01*
X149712Y607752D01*
X152882Y606058D01*
X156322Y605014D01*
X159900Y604662D01*
X163478Y605014D01*
X166918Y606058D01*
X170088Y607752D01*
X172867Y610033D01*
X175148Y612812D01*
X176842Y615983D01*
X177886Y619423D01*
X178238Y623000D01*
X177886Y626578D01*
X176842Y630018D01*
X175148Y633188D01*
X172867Y635967D01*
X170088Y638248D01*
X166918Y639943D01*
X163478Y640986D01*
X159900Y641339D01*
D02*
G37*
G36*
X45600D02*
X42023Y640986D01*
X38582Y639943D01*
X35412Y638248D01*
X32633Y635967D01*
X30352Y633188D01*
X28658Y630018D01*
X27614Y626578D01*
X27262Y623000D01*
X27614Y619423D01*
X28658Y615983D01*
X30352Y612812D01*
X32633Y610033D01*
X35412Y607752D01*
X38582Y606058D01*
X42023Y605014D01*
X45600Y604662D01*
X49178Y605014D01*
X52618Y606058D01*
X55788Y607752D01*
X58567Y610033D01*
X60848Y612812D01*
X62543Y615983D01*
X63586Y619423D01*
X63938Y623000D01*
X63586Y626578D01*
X62543Y630018D01*
X60848Y633188D01*
X58567Y635967D01*
X55788Y638248D01*
X52618Y639943D01*
X49178Y640986D01*
X45600Y641339D01*
D02*
G37*
G36*
X335000Y614500D02*
X317000D01*
Y596500D01*
X335000D01*
Y614500D01*
D02*
G37*
G36*
X181470Y607211D02*
Y593770D01*
X194911D01*
X194751Y595394D01*
X193907Y598178D01*
X192536Y600743D01*
X190691Y602991D01*
X188442Y604836D01*
X185877Y606207D01*
X183094Y607051D01*
X181470Y607211D01*
D02*
G37*
G36*
X26570D02*
Y593770D01*
X40011D01*
X39851Y595394D01*
X39007Y598178D01*
X37636Y600743D01*
X35791Y602991D01*
X33543Y604836D01*
X30978Y606207D01*
X28194Y607051D01*
X26570Y607211D01*
D02*
G37*
G36*
X24030D02*
X22406Y607051D01*
X19622Y606207D01*
X17057Y604836D01*
X14809Y602991D01*
X12964Y600743D01*
X11593Y598178D01*
X10749Y595394D01*
X10589Y593770D01*
X24030D01*
Y607211D01*
D02*
G37*
G36*
X178930D02*
X177305Y607051D01*
X174522Y606207D01*
X171957Y604836D01*
X169709Y602991D01*
X167864Y600743D01*
X166493Y598178D01*
X165648Y595394D01*
X165488Y593770D01*
X178930D01*
Y607211D01*
D02*
G37*
G36*
X194911Y591230D02*
X181470D01*
Y577789D01*
X183094Y577949D01*
X185877Y578793D01*
X188442Y580164D01*
X190691Y582009D01*
X192536Y584257D01*
X193907Y586822D01*
X194751Y589605D01*
X194911Y591230D01*
D02*
G37*
G36*
X40011D02*
X26570D01*
Y577789D01*
X28194Y577949D01*
X30978Y578793D01*
X33543Y580164D01*
X35791Y582009D01*
X37636Y584257D01*
X39007Y586822D01*
X39851Y589605D01*
X40011Y591230D01*
D02*
G37*
G36*
X178930D02*
X165488D01*
X165648Y589605D01*
X166493Y586822D01*
X167864Y584257D01*
X169709Y582009D01*
X171957Y580164D01*
X174522Y578793D01*
X177305Y577949D01*
X178930Y577789D01*
Y591230D01*
D02*
G37*
G36*
X24030D02*
X10589D01*
X10749Y589605D01*
X11593Y586822D01*
X12964Y584257D01*
X14809Y582009D01*
X17057Y580164D01*
X19622Y578793D01*
X22406Y577949D01*
X24030Y577789D01*
Y591230D01*
D02*
G37*
G36*
X241500Y590625D02*
X237715Y590127D01*
X234187Y588666D01*
X231159Y586342D01*
X228834Y583312D01*
X227373Y579785D01*
X226875Y576000D01*
X227373Y572215D01*
X228834Y568687D01*
X231159Y565658D01*
X234187Y563334D01*
X237715Y561873D01*
X241500Y561375D01*
X245285Y561873D01*
X248813Y563334D01*
X251842Y565658D01*
X254166Y568687D01*
X255627Y572215D01*
X256125Y576000D01*
X255627Y579785D01*
X254166Y583312D01*
X251842Y586342D01*
X248813Y588666D01*
X245285Y590127D01*
X241500Y590625D01*
D02*
G37*
G36*
X275750Y566608D02*
X273604Y566181D01*
X271785Y564965D01*
X270569Y563146D01*
X270142Y561000D01*
X270569Y558854D01*
X271785Y557035D01*
X273604Y555819D01*
X275750Y555392D01*
X277896Y555819D01*
X279715Y557035D01*
X280931Y558854D01*
X281358Y561000D01*
X280931Y563146D01*
X279715Y564965D01*
X277896Y566181D01*
X275750Y566608D01*
D02*
G37*
G36*
X156240Y568490D02*
X138260D01*
Y550510D01*
X156240D01*
Y568490D01*
D02*
G37*
G36*
X121850Y568568D02*
X119503Y568259D01*
X117316Y567353D01*
X115438Y565912D01*
X113997Y564034D01*
X113091Y561847D01*
X112782Y559500D01*
X113091Y557153D01*
X113997Y554966D01*
X115438Y553088D01*
X117316Y551647D01*
X119503Y550742D01*
X121850Y550433D01*
X124197Y550742D01*
X126384Y551647D01*
X128262Y553088D01*
X129703Y554966D01*
X130609Y557153D01*
X130918Y559500D01*
X130609Y561847D01*
X129703Y564034D01*
X128262Y565912D01*
X126384Y567353D01*
X124197Y568259D01*
X121850Y568568D01*
D02*
G37*
G36*
X96450D02*
X94103Y568259D01*
X91916Y567353D01*
X90038Y565912D01*
X88597Y564034D01*
X87691Y561847D01*
X87382Y559500D01*
X87691Y557153D01*
X88597Y554966D01*
X90038Y553088D01*
X91916Y551647D01*
X94103Y550742D01*
X96450Y550433D01*
X98797Y550742D01*
X100984Y551647D01*
X102862Y553088D01*
X104303Y554966D01*
X105209Y557153D01*
X105518Y559500D01*
X105209Y561847D01*
X104303Y564034D01*
X102862Y565912D01*
X100984Y567353D01*
X98797Y568259D01*
X96450Y568568D01*
D02*
G37*
G36*
X71050D02*
X68703Y568259D01*
X66516Y567353D01*
X64638Y565912D01*
X63197Y564034D01*
X62291Y561847D01*
X61982Y559500D01*
X62291Y557153D01*
X63197Y554966D01*
X64638Y553088D01*
X66516Y551647D01*
X68703Y550742D01*
X71050Y550433D01*
X73397Y550742D01*
X75584Y551647D01*
X77462Y553088D01*
X78903Y554966D01*
X79809Y557153D01*
X80118Y559500D01*
X79809Y561847D01*
X78903Y564034D01*
X77462Y565912D01*
X75584Y567353D01*
X73397Y568259D01*
X71050Y568568D01*
D02*
G37*
G36*
X59620Y543545D02*
Y535370D01*
X67795D01*
X67635Y536588D01*
X66674Y538906D01*
X65147Y540897D01*
X63156Y542425D01*
X60838Y543385D01*
X59620Y543545D01*
D02*
G37*
G36*
X57080D02*
X55862Y543385D01*
X53544Y542425D01*
X51553Y540897D01*
X50026Y538906D01*
X49065Y536588D01*
X48905Y535370D01*
X57080D01*
Y543545D01*
D02*
G37*
G36*
X134550Y543168D02*
X132203Y542859D01*
X130016Y541953D01*
X128138Y540512D01*
X126697Y538634D01*
X125791Y536447D01*
X125482Y534100D01*
X125791Y531753D01*
X126697Y529566D01*
X128138Y527688D01*
X130016Y526247D01*
X132203Y525342D01*
X134550Y525033D01*
X136897Y525342D01*
X139084Y526247D01*
X140962Y527688D01*
X142403Y529566D01*
X143308Y531753D01*
X143617Y534100D01*
X143308Y536447D01*
X142403Y538634D01*
X140962Y540512D01*
X139084Y541953D01*
X136897Y542859D01*
X134550Y543168D01*
D02*
G37*
G36*
X109150D02*
X106803Y542859D01*
X104616Y541953D01*
X102738Y540512D01*
X101297Y538634D01*
X100391Y536447D01*
X100082Y534100D01*
X100391Y531753D01*
X101297Y529566D01*
X102738Y527688D01*
X104616Y526247D01*
X106803Y525342D01*
X109150Y525033D01*
X111497Y525342D01*
X113684Y526247D01*
X115562Y527688D01*
X117003Y529566D01*
X117908Y531753D01*
X118217Y534100D01*
X117908Y536447D01*
X117003Y538634D01*
X115562Y540512D01*
X113684Y541953D01*
X111497Y542859D01*
X109150Y543168D01*
D02*
G37*
G36*
X83750D02*
X81403Y542859D01*
X79216Y541953D01*
X77338Y540512D01*
X75897Y538634D01*
X74991Y536447D01*
X74682Y534100D01*
X74991Y531753D01*
X75897Y529566D01*
X77338Y527688D01*
X79216Y526247D01*
X81403Y525342D01*
X83750Y525033D01*
X86097Y525342D01*
X88284Y526247D01*
X90162Y527688D01*
X91603Y529566D01*
X92508Y531753D01*
X92817Y534100D01*
X92508Y536447D01*
X91603Y538634D01*
X90162Y540512D01*
X88284Y541953D01*
X86097Y542859D01*
X83750Y543168D01*
D02*
G37*
G36*
X67795Y532830D02*
X59620D01*
Y524655D01*
X60838Y524815D01*
X63156Y525776D01*
X65147Y527303D01*
X66674Y529294D01*
X67635Y531612D01*
X67795Y532830D01*
D02*
G37*
G36*
X57080D02*
X48905D01*
X49065Y531612D01*
X50026Y529294D01*
X51553Y527303D01*
X53544Y525776D01*
X55862Y524815D01*
X57080Y524655D01*
Y532830D01*
D02*
G37*
G36*
X445000Y524358D02*
X442854Y523931D01*
X441035Y522715D01*
X439819Y520896D01*
X439392Y518750D01*
X439819Y516604D01*
X441035Y514785D01*
X442854Y513569D01*
X445000Y513142D01*
X447146Y513569D01*
X448965Y514785D01*
X450181Y516604D01*
X450608Y518750D01*
X450181Y520896D01*
X448965Y522715D01*
X447146Y523931D01*
X445000Y524358D01*
D02*
G37*
G36*
X115000Y523358D02*
X112854Y522931D01*
X111035Y521716D01*
X109819Y519896D01*
X109392Y517750D01*
X109819Y515604D01*
X111035Y513785D01*
X112854Y512569D01*
X115000Y512142D01*
X117146Y512569D01*
X118965Y513785D01*
X120181Y515604D01*
X120608Y517750D01*
X120181Y519896D01*
X118965Y521716D01*
X117146Y522931D01*
X115000Y523358D01*
D02*
G37*
G36*
X488020Y509036D02*
Y485270D01*
X511786D01*
X511428Y488909D01*
X509996Y493629D01*
X507671Y497979D01*
X504542Y501792D01*
X500729Y504921D01*
X496379Y507246D01*
X491659Y508678D01*
X488020Y509036D01*
D02*
G37*
G36*
X485480D02*
X481841Y508678D01*
X477121Y507246D01*
X472771Y504921D01*
X468958Y501792D01*
X465829Y497979D01*
X463504Y493629D01*
X462072Y488909D01*
X461714Y485270D01*
X485480D01*
Y509036D01*
D02*
G37*
G36*
X205500Y543084D02*
X171250D01*
X169974Y542830D01*
X168892Y542108D01*
X133892Y507108D01*
X133170Y506026D01*
X132916Y504750D01*
Y457750D01*
X133170Y456474D01*
X133892Y455392D01*
X148392Y440892D01*
X149474Y440170D01*
X150750Y439916D01*
X175113D01*
X175535Y439285D01*
X177354Y438069D01*
X179500Y437642D01*
X181646Y438069D01*
X183465Y439285D01*
X184681Y441104D01*
X185108Y443250D01*
X184681Y445396D01*
X183465Y447215D01*
X183038Y447501D01*
X183060Y449013D01*
X184215Y449785D01*
X185431Y451604D01*
X185557Y452241D01*
X186966Y452810D01*
X188104Y452049D01*
X190250Y451622D01*
X190594Y451691D01*
X198166Y444119D01*
Y432500D01*
X198420Y431224D01*
X199142Y430143D01*
X217892Y411393D01*
X218974Y410670D01*
X220250Y410416D01*
X242863D01*
X243285Y409785D01*
X245104Y408569D01*
X247250Y408142D01*
X249396Y408569D01*
X251215Y409785D01*
X252431Y411604D01*
X252858Y413750D01*
X252431Y415896D01*
X251215Y417715D01*
X249396Y418931D01*
X247250Y419358D01*
X245104Y418931D01*
X243285Y417715D01*
X242863Y417084D01*
X221631D01*
X204834Y433881D01*
Y445500D01*
X204580Y446776D01*
X203857Y447858D01*
X195630Y456085D01*
X195858Y457230D01*
X195431Y459376D01*
X194215Y461195D01*
X192396Y462411D01*
X190250Y462838D01*
X189945Y462777D01*
X189657Y463020D01*
X188385Y464292D01*
X188754Y465507D01*
X189166Y465589D01*
X190985Y466805D01*
X192201Y468624D01*
X192628Y470770D01*
X192201Y472916D01*
X190985Y474735D01*
X189166Y475951D01*
X187020Y476378D01*
X184874Y475951D01*
X183055Y474735D01*
X181839Y472916D01*
X181412Y470770D01*
X181745Y469098D01*
X180960Y467828D01*
X175000D01*
X173439Y467518D01*
X172116Y466634D01*
X172116Y466634D01*
X168561Y463078D01*
X155083D01*
X155078Y463148D01*
Y500560D01*
X165997Y511479D01*
X166050Y511433D01*
X176866Y500616D01*
X176866Y500616D01*
X178189Y499732D01*
X179750Y499422D01*
X282561D01*
X294740Y487243D01*
X294884Y487071D01*
X294944Y486989D01*
X295319Y485104D01*
X296535Y483285D01*
X298354Y482069D01*
X300500Y481642D01*
X302646Y482069D01*
X304465Y483285D01*
X305681Y485104D01*
X306108Y487250D01*
X305681Y489396D01*
X304465Y491215D01*
X302646Y492431D01*
X300761Y492806D01*
X300693Y492856D01*
X300450Y493067D01*
X287134Y506384D01*
X285811Y507268D01*
X284250Y507578D01*
X284250Y507578D01*
X267331D01*
X267142Y508201D01*
X267008Y508848D01*
X268181Y510604D01*
X268608Y512750D01*
X268181Y514896D01*
X266965Y516715D01*
X265146Y517931D01*
X263000Y518358D01*
X260854Y517931D01*
X259035Y516715D01*
X257819Y514896D01*
X257392Y512750D01*
X257819Y510604D01*
X258992Y508848D01*
X258857Y508201D01*
X258668Y507578D01*
X252081D01*
X251892Y508201D01*
X251758Y508848D01*
X252931Y510604D01*
X253358Y512750D01*
X252931Y514896D01*
X251715Y516715D01*
X249896Y517931D01*
X247750Y518358D01*
X245604Y517931D01*
X243785Y516715D01*
X242569Y514896D01*
X242142Y512750D01*
X242569Y510604D01*
X243742Y508848D01*
X243608Y508201D01*
X243419Y507578D01*
X236831D01*
X236642Y508201D01*
X236508Y508848D01*
X237681Y510604D01*
X238108Y512750D01*
X237681Y514896D01*
X236465Y516715D01*
X234646Y517931D01*
X232500Y518358D01*
X231755Y518210D01*
X207857Y542108D01*
X206776Y542830D01*
X205500Y543084D01*
D02*
G37*
G36*
X511786Y482730D02*
X488020D01*
Y458964D01*
X491659Y459323D01*
X496379Y460754D01*
X500729Y463079D01*
X504542Y466209D01*
X507671Y470022D01*
X509996Y474371D01*
X511428Y479091D01*
X511786Y482730D01*
D02*
G37*
G36*
X485480D02*
X461714D01*
X462072Y479091D01*
X463504Y474371D01*
X465829Y470022D01*
X468958Y466209D01*
X472771Y463079D01*
X477121Y460754D01*
X481841Y459323D01*
X485480Y458964D01*
Y482730D01*
D02*
G37*
G36*
X41520Y476786D02*
Y453020D01*
X65286D01*
X64928Y456659D01*
X63496Y461379D01*
X61171Y465729D01*
X58042Y469542D01*
X54229Y472671D01*
X49879Y474996D01*
X45159Y476428D01*
X41520Y476786D01*
D02*
G37*
G36*
X38980D02*
X35341Y476428D01*
X30621Y474996D01*
X26271Y472671D01*
X22458Y469542D01*
X19329Y465729D01*
X17004Y461379D01*
X15572Y456659D01*
X15214Y453020D01*
X38980D01*
Y476786D01*
D02*
G37*
G36*
X234500Y496108D02*
X232354Y495681D01*
X230535Y494465D01*
X229319Y492646D01*
X228892Y490500D01*
X229319Y488354D01*
X230535Y486535D01*
X232354Y485319D01*
X234500Y484892D01*
X236646Y485319D01*
X238465Y486535D01*
X238903Y487189D01*
X240430D01*
X241035Y486285D01*
X242854Y485069D01*
X245000Y484642D01*
X247146Y485069D01*
X248965Y486285D01*
X249194Y486628D01*
X250721D01*
X251285Y485784D01*
X253104Y484569D01*
X255250Y484142D01*
X257396Y484569D01*
X259216Y485784D01*
X259528Y486252D01*
X261055D01*
X261535Y485535D01*
X263056Y484518D01*
X263163Y483436D01*
X263088Y483086D01*
X261785Y482215D01*
X260569Y480396D01*
X260142Y478250D01*
X260569Y476104D01*
X261785Y474285D01*
X263525Y473122D01*
X263606Y472828D01*
X263616Y471772D01*
X262035Y470715D01*
X260819Y468896D01*
X260392Y466750D01*
X260819Y464604D01*
X262035Y462785D01*
X262752Y462305D01*
Y460778D01*
X262285Y460465D01*
X261069Y458646D01*
X260642Y456500D01*
X261069Y454354D01*
X262285Y452535D01*
X262916Y452113D01*
Y447830D01*
X261646Y447445D01*
X261465Y447715D01*
X259646Y448931D01*
X257500Y449358D01*
X255354Y448931D01*
X253535Y447715D01*
X252319Y445896D01*
X251892Y443750D01*
X252319Y441604D01*
X253535Y439785D01*
X255354Y438569D01*
X257500Y438142D01*
X259646Y438569D01*
X261465Y439785D01*
X261646Y440055D01*
X262916Y439670D01*
Y422881D01*
X261392Y421357D01*
X260670Y420276D01*
X260416Y419000D01*
Y325000D01*
X260670Y323724D01*
X261392Y322643D01*
X290166Y293869D01*
Y234387D01*
X289535Y233965D01*
X288319Y232146D01*
X287892Y230000D01*
X288319Y227854D01*
X289535Y226035D01*
X291354Y224819D01*
X293500Y224392D01*
X295646Y224819D01*
X297465Y226035D01*
X298681Y227854D01*
X299108Y230000D01*
X298681Y232146D01*
X297897Y233319D01*
X298661Y234462D01*
X300270Y234142D01*
X301015Y234290D01*
X347416Y187889D01*
Y135887D01*
X346785Y135465D01*
X345569Y133646D01*
X345142Y131500D01*
X345569Y129354D01*
X346785Y127535D01*
X348604Y126319D01*
X350750Y125892D01*
X352896Y126319D01*
X354715Y127535D01*
X355931Y129354D01*
X356358Y131500D01*
X355931Y133646D01*
X354715Y135465D01*
X354084Y135887D01*
Y189270D01*
X353830Y190546D01*
X353107Y191628D01*
X305730Y239005D01*
X305878Y239750D01*
X305451Y241896D01*
X304235Y243715D01*
X302416Y244931D01*
X300270Y245358D01*
X298124Y244931D01*
X297954Y244817D01*
X296834Y245416D01*
Y295250D01*
X296580Y296526D01*
X295858Y297607D01*
X267084Y326381D01*
Y417619D01*
X268608Y419142D01*
X269330Y420224D01*
X269584Y421500D01*
Y452113D01*
X270215Y452535D01*
X271431Y454354D01*
X271858Y456500D01*
X271431Y458646D01*
X270215Y460465D01*
X269498Y460945D01*
Y462472D01*
X269965Y462785D01*
X271181Y464604D01*
X271608Y466750D01*
X271181Y468896D01*
X269965Y470715D01*
X268225Y471878D01*
X268144Y472173D01*
X268134Y473228D01*
X269715Y474285D01*
X270931Y476104D01*
X271358Y478250D01*
X270931Y480396D01*
X269715Y482215D01*
X268194Y483232D01*
X268087Y484314D01*
X268163Y484664D01*
X269465Y485535D01*
X270681Y487354D01*
X271108Y489500D01*
X270681Y491646D01*
X269465Y493465D01*
X267646Y494681D01*
X265500Y495108D01*
X263354Y494681D01*
X261535Y493465D01*
X261222Y492998D01*
X259695D01*
X259216Y493715D01*
X257396Y494931D01*
X255250Y495358D01*
X253104Y494931D01*
X251285Y493715D01*
X251056Y493372D01*
X249528D01*
X248965Y494215D01*
X247146Y495431D01*
X245000Y495858D01*
X242854Y495431D01*
X241035Y494215D01*
X240597Y493561D01*
X239070D01*
X238465Y494465D01*
X236646Y495681D01*
X234500Y496108D01*
D02*
G37*
G36*
X137500Y447608D02*
X135354Y447181D01*
X133535Y445965D01*
X132319Y444146D01*
X131892Y442000D01*
X132319Y439854D01*
X133535Y438035D01*
X135354Y436819D01*
X137500Y436392D01*
X139646Y436819D01*
X141465Y438035D01*
X142681Y439854D01*
X143108Y442000D01*
X142681Y444146D01*
X141465Y445965D01*
X139646Y447181D01*
X137500Y447608D01*
D02*
G37*
G36*
X65286Y450480D02*
X41520D01*
Y426714D01*
X45159Y427072D01*
X49879Y428504D01*
X54229Y430829D01*
X58042Y433958D01*
X61171Y437771D01*
X63496Y442121D01*
X64928Y446841D01*
X65286Y450480D01*
D02*
G37*
G36*
X38980D02*
X15214D01*
X15572Y446841D01*
X17004Y442121D01*
X19329Y437771D01*
X22458Y433958D01*
X26271Y430829D01*
X30621Y428504D01*
X35341Y427072D01*
X38980Y426714D01*
Y450480D01*
D02*
G37*
G36*
X238000Y436608D02*
X235854Y436181D01*
X234035Y434965D01*
X232819Y433146D01*
X232392Y431000D01*
X232819Y428854D01*
X234035Y427035D01*
X235854Y425819D01*
X238000Y425392D01*
X240146Y425819D01*
X241965Y427035D01*
X243181Y428854D01*
X243608Y431000D01*
X243181Y433146D01*
X241965Y434965D01*
X240146Y436181D01*
X238000Y436608D01*
D02*
G37*
G36*
X224000Y434858D02*
X221854Y434431D01*
X220035Y433215D01*
X218819Y431396D01*
X218392Y429250D01*
X218819Y427104D01*
X220035Y425285D01*
X221854Y424069D01*
X224000Y423642D01*
X226146Y424069D01*
X227965Y425285D01*
X229181Y427104D01*
X229608Y429250D01*
X229181Y431396D01*
X227965Y433215D01*
X226146Y434431D01*
X224000Y434858D01*
D02*
G37*
G36*
X201000Y416358D02*
X198854Y415931D01*
X197035Y414715D01*
X195819Y412896D01*
X195392Y410750D01*
X195819Y408604D01*
X197035Y406785D01*
X198854Y405569D01*
X201000Y405142D01*
X203146Y405569D01*
X204965Y406785D01*
X206181Y408604D01*
X206608Y410750D01*
X206181Y412896D01*
X204965Y414715D01*
X203146Y415931D01*
X201000Y416358D01*
D02*
G37*
G36*
X278750Y408358D02*
X276604Y407931D01*
X274785Y406715D01*
X273569Y404896D01*
X273142Y402750D01*
X273569Y400604D01*
X274785Y398785D01*
X276604Y397569D01*
X278750Y397142D01*
X280896Y397569D01*
X282715Y398785D01*
X283931Y400604D01*
X284358Y402750D01*
X283931Y404896D01*
X282715Y406715D01*
X280896Y407931D01*
X278750Y408358D01*
D02*
G37*
G36*
Y395608D02*
X276604Y395181D01*
X274785Y393965D01*
X273569Y392146D01*
X273142Y390000D01*
X273569Y387854D01*
X274785Y386035D01*
X276604Y384819D01*
X278750Y384392D01*
X280896Y384819D01*
X282715Y386035D01*
X283931Y387854D01*
X284358Y390000D01*
X283931Y392146D01*
X282715Y393965D01*
X280896Y395181D01*
X278750Y395608D01*
D02*
G37*
G36*
X37250Y398550D02*
X18250D01*
Y379550D01*
X37250D01*
Y398550D01*
D02*
G37*
G36*
X198250Y389358D02*
X196104Y388931D01*
X194285Y387715D01*
X193069Y385896D01*
X192642Y383750D01*
X193069Y381604D01*
X194285Y379785D01*
X196104Y378569D01*
X198250Y378142D01*
X200396Y378569D01*
X202215Y379785D01*
X203431Y381604D01*
X203858Y383750D01*
X203431Y385896D01*
X202215Y387715D01*
X200396Y388931D01*
X198250Y389358D01*
D02*
G37*
G36*
X135000Y388638D02*
X132854Y388211D01*
X131035Y386995D01*
X129819Y385176D01*
X129392Y383030D01*
X129819Y380884D01*
X131035Y379064D01*
X132854Y377849D01*
X135000Y377422D01*
X137146Y377849D01*
X138965Y379064D01*
X140181Y380884D01*
X140608Y383030D01*
X140181Y385176D01*
X138965Y386995D01*
X137146Y388211D01*
X135000Y388638D01*
D02*
G37*
G36*
X354520Y386114D02*
Y376920D01*
X363714D01*
X363519Y378401D01*
X362457Y380965D01*
X360767Y383167D01*
X358565Y384857D01*
X356002Y385919D01*
X354520Y386114D01*
D02*
G37*
G36*
X351980D02*
X350499Y385919D01*
X347934Y384857D01*
X345733Y383167D01*
X344043Y380965D01*
X342981Y378401D01*
X342786Y376920D01*
X351980D01*
Y386114D01*
D02*
G37*
G36*
X278750Y381608D02*
X276604Y381181D01*
X274785Y379965D01*
X273569Y378146D01*
X273142Y376000D01*
X273569Y373854D01*
X274785Y372035D01*
X276604Y370819D01*
X278750Y370392D01*
X280896Y370819D01*
X282715Y372035D01*
X283931Y373854D01*
X284358Y376000D01*
X283931Y378146D01*
X282715Y379965D01*
X280896Y381181D01*
X278750Y381608D01*
D02*
G37*
G36*
X363714Y374380D02*
X354520D01*
Y365186D01*
X356002Y365381D01*
X358565Y366443D01*
X360767Y368133D01*
X362457Y370335D01*
X363519Y372898D01*
X363714Y374380D01*
D02*
G37*
G36*
X351980D02*
X342786D01*
X342981Y372898D01*
X344043Y370335D01*
X345733Y368133D01*
X347934Y366443D01*
X350499Y365381D01*
X351980Y365186D01*
Y374380D01*
D02*
G37*
G36*
X27750Y373232D02*
X25270Y372906D01*
X22959Y371948D01*
X20975Y370425D01*
X19452Y368441D01*
X18494Y366130D01*
X18168Y363650D01*
X18494Y361170D01*
X19452Y358859D01*
X20975Y356875D01*
X22959Y355352D01*
X25270Y354394D01*
X27750Y354068D01*
X30230Y354394D01*
X32541Y355352D01*
X34525Y356875D01*
X36048Y358859D01*
X37005Y361170D01*
X37332Y363650D01*
X37005Y366130D01*
X36048Y368441D01*
X34525Y370425D01*
X32541Y371948D01*
X30230Y372906D01*
X27750Y373232D01*
D02*
G37*
G36*
X161500Y359108D02*
X159354Y358681D01*
X157535Y357465D01*
X156319Y355646D01*
X155892Y353500D01*
X156319Y351354D01*
X157535Y349535D01*
X159354Y348319D01*
X161500Y347892D01*
X163646Y348319D01*
X165465Y349535D01*
X166681Y351354D01*
X167108Y353500D01*
X166681Y355646D01*
X165465Y357465D01*
X163646Y358681D01*
X161500Y359108D01*
D02*
G37*
G36*
X353250Y360336D02*
X350639Y359992D01*
X348207Y358985D01*
X346118Y357382D01*
X344515Y355293D01*
X343507Y352860D01*
X343164Y350250D01*
X343507Y347639D01*
X344515Y345207D01*
X346118Y343118D01*
X348207Y341515D01*
X350639Y340507D01*
X353250Y340164D01*
X355860Y340507D01*
X358293Y341515D01*
X360382Y343118D01*
X361985Y345207D01*
X362993Y347639D01*
X363336Y350250D01*
X362993Y352860D01*
X361985Y355293D01*
X360382Y357382D01*
X358293Y358985D01*
X355860Y359992D01*
X353250Y360336D01*
D02*
G37*
G36*
X29020Y348209D02*
Y339520D01*
X37709D01*
X37531Y340871D01*
X36520Y343313D01*
X34911Y345411D01*
X32813Y347020D01*
X30371Y348032D01*
X29020Y348209D01*
D02*
G37*
G36*
X26480D02*
X25129Y348032D01*
X22687Y347020D01*
X20589Y345411D01*
X18980Y343313D01*
X17968Y340871D01*
X17790Y339520D01*
X26480D01*
Y348209D01*
D02*
G37*
G36*
X297000Y340358D02*
X294854Y339931D01*
X293035Y338715D01*
X291819Y336896D01*
X291392Y334750D01*
X291819Y332604D01*
X293035Y330785D01*
X294854Y329569D01*
X297000Y329142D01*
X299146Y329569D01*
X300965Y330785D01*
X302181Y332604D01*
X302608Y334750D01*
X302181Y336896D01*
X300965Y338715D01*
X299146Y339931D01*
X297000Y340358D01*
D02*
G37*
G36*
X37709Y336980D02*
X29020D01*
Y328291D01*
X30371Y328468D01*
X32813Y329480D01*
X34911Y331089D01*
X36520Y333187D01*
X37531Y335629D01*
X37709Y336980D01*
D02*
G37*
G36*
X26480D02*
X17790D01*
X17968Y335629D01*
X18980Y333187D01*
X20589Y331089D01*
X22687Y329480D01*
X25129Y328468D01*
X26480Y328291D01*
Y336980D01*
D02*
G37*
G36*
X128000Y338608D02*
X125854Y338181D01*
X124035Y336965D01*
X122819Y335146D01*
X122392Y333000D01*
X122819Y330854D01*
X124035Y329035D01*
X125854Y327819D01*
X128000Y327392D01*
X130146Y327819D01*
X131965Y329035D01*
X133181Y330854D01*
X133608Y333000D01*
X133181Y335146D01*
X131965Y336965D01*
X130146Y338181D01*
X128000Y338608D01*
D02*
G37*
G36*
X363250Y334850D02*
X343250D01*
Y314850D01*
X363250D01*
Y334850D01*
D02*
G37*
G36*
X27750Y322432D02*
X25270Y322105D01*
X22959Y321148D01*
X20975Y319625D01*
X19452Y317641D01*
X18494Y315330D01*
X18168Y312850D01*
X18494Y310370D01*
X19452Y308059D01*
X20975Y306075D01*
X22959Y304552D01*
X25270Y303594D01*
X27750Y303268D01*
X30230Y303594D01*
X32541Y304552D01*
X34525Y306075D01*
X36048Y308059D01*
X37005Y310370D01*
X37332Y312850D01*
X37005Y315330D01*
X36048Y317641D01*
X34525Y319625D01*
X32541Y321148D01*
X30230Y322105D01*
X27750Y322432D01*
D02*
G37*
G36*
X146750Y306858D02*
X144604Y306431D01*
X142785Y305215D01*
X141569Y303396D01*
X141142Y301250D01*
X141569Y299104D01*
X142785Y297285D01*
X144604Y296069D01*
X146750Y295642D01*
X148896Y296069D01*
X150715Y297285D01*
X151931Y299104D01*
X152358Y301250D01*
X151931Y303396D01*
X150715Y305215D01*
X148896Y306431D01*
X146750Y306858D01*
D02*
G37*
G36*
X136750Y298108D02*
X134604Y297681D01*
X132785Y296465D01*
X131569Y294646D01*
X131142Y292500D01*
X131569Y290354D01*
X132785Y288535D01*
X134604Y287319D01*
X136750Y286892D01*
X138896Y287319D01*
X140715Y288535D01*
X141931Y290354D01*
X142358Y292500D01*
X141931Y294646D01*
X140715Y296465D01*
X138896Y297681D01*
X136750Y298108D01*
D02*
G37*
G36*
X357750Y294358D02*
X355604Y293931D01*
X353785Y292715D01*
X352569Y290896D01*
X352142Y288750D01*
X352569Y286604D01*
X353785Y284785D01*
X355604Y283569D01*
X357750Y283142D01*
X359896Y283569D01*
X361715Y284785D01*
X362931Y286604D01*
X363358Y288750D01*
X362931Y290896D01*
X361715Y292715D01*
X359896Y293931D01*
X357750Y294358D01*
D02*
G37*
G36*
X104500Y291108D02*
X102354Y290681D01*
X100535Y289465D01*
X99319Y287646D01*
X98892Y285500D01*
X99319Y283354D01*
X100535Y281535D01*
X102354Y280319D01*
X104500Y279892D01*
X106646Y280319D01*
X108465Y281535D01*
X109681Y283354D01*
X110108Y285500D01*
X109681Y287646D01*
X108465Y289465D01*
X106646Y290681D01*
X104500Y291108D01*
D02*
G37*
G36*
X58020Y287464D02*
Y278270D01*
X67214D01*
X67019Y279751D01*
X65957Y282315D01*
X64267Y284517D01*
X62066Y286207D01*
X59502Y287269D01*
X58020Y287464D01*
D02*
G37*
G36*
X55480D02*
X53999Y287269D01*
X51435Y286207D01*
X49233Y284517D01*
X47544Y282315D01*
X46481Y279751D01*
X46286Y278270D01*
X55480D01*
Y287464D01*
D02*
G37*
G36*
X27750Y297032D02*
X25270Y296705D01*
X22959Y295748D01*
X20975Y294225D01*
X19452Y292241D01*
X18494Y289930D01*
X18168Y287450D01*
X18494Y284970D01*
X19452Y282659D01*
X20975Y280674D01*
X22959Y279152D01*
X25270Y278195D01*
X27750Y277868D01*
X30230Y278195D01*
X32541Y279152D01*
X34525Y280674D01*
X36048Y282659D01*
X37005Y284970D01*
X37332Y287450D01*
X37005Y289930D01*
X36048Y292241D01*
X34525Y294225D01*
X32541Y295748D01*
X30230Y296705D01*
X27750Y297032D01*
D02*
G37*
G36*
X189750Y288608D02*
X187604Y288181D01*
X185785Y286965D01*
X184569Y285146D01*
X184142Y283000D01*
X184569Y280854D01*
X185785Y279035D01*
X187604Y277819D01*
X189750Y277392D01*
X191896Y277819D01*
X193715Y279035D01*
X194931Y280854D01*
X195358Y283000D01*
X194931Y285146D01*
X193715Y286965D01*
X191896Y288181D01*
X189750Y288608D01*
D02*
G37*
G36*
X386250Y283608D02*
X384104Y283181D01*
X382285Y281965D01*
X381069Y280146D01*
X380642Y278000D01*
X381069Y275854D01*
X382285Y274035D01*
X384104Y272819D01*
X386250Y272392D01*
X388396Y272819D01*
X390215Y274035D01*
X391431Y275854D01*
X391858Y278000D01*
X391431Y280146D01*
X390215Y281965D01*
X388396Y283181D01*
X386250Y283608D01*
D02*
G37*
G36*
X208500Y277858D02*
X206354Y277431D01*
X204535Y276215D01*
X203319Y274396D01*
X202892Y272250D01*
X203319Y270104D01*
X204535Y268285D01*
X206354Y267069D01*
X208500Y266642D01*
X210646Y267069D01*
X212465Y268285D01*
X213681Y270104D01*
X214108Y272250D01*
X213681Y274396D01*
X212465Y276215D01*
X210646Y277431D01*
X208500Y277858D01*
D02*
G37*
G36*
X67214Y275730D02*
X58020D01*
Y266536D01*
X59502Y266731D01*
X62066Y267793D01*
X64267Y269483D01*
X65957Y271684D01*
X67019Y274248D01*
X67214Y275730D01*
D02*
G37*
G36*
X55480D02*
X46286D01*
X46481Y274248D01*
X47544Y271684D01*
X49233Y269483D01*
X51435Y267793D01*
X53999Y266731D01*
X55480Y266536D01*
Y275730D01*
D02*
G37*
G36*
X423270Y267955D02*
Y259770D01*
X431455D01*
X431295Y260991D01*
X430333Y263311D01*
X428804Y265304D01*
X426811Y266833D01*
X424491Y267794D01*
X423270Y267955D01*
D02*
G37*
G36*
X420730D02*
X419510Y267794D01*
X417189Y266833D01*
X415196Y265304D01*
X413667Y263311D01*
X412706Y260991D01*
X412545Y259770D01*
X420730D01*
Y267955D01*
D02*
G37*
G36*
X481000Y267500D02*
X463000D01*
Y249500D01*
X481000D01*
Y267500D01*
D02*
G37*
G36*
X431455Y257230D02*
X423270D01*
Y249045D01*
X424491Y249206D01*
X426811Y250167D01*
X428804Y251696D01*
X430333Y253689D01*
X431295Y256010D01*
X431455Y257230D01*
D02*
G37*
G36*
X420730D02*
X412545D01*
X412706Y256010D01*
X413667Y253689D01*
X415196Y251696D01*
X417189Y250167D01*
X419510Y249206D01*
X420730Y249045D01*
Y257230D01*
D02*
G37*
G36*
X385000Y255608D02*
X382854Y255181D01*
X381035Y253965D01*
X379819Y252146D01*
X379392Y250000D01*
X379819Y247854D01*
X381035Y246035D01*
X382854Y244819D01*
X385000Y244392D01*
X387146Y244819D01*
X388965Y246035D01*
X390181Y247854D01*
X390608Y250000D01*
X390181Y252146D01*
X388965Y253965D01*
X387146Y255181D01*
X385000Y255608D01*
D02*
G37*
G36*
X346500Y252858D02*
X344354Y252431D01*
X342535Y251215D01*
X341319Y249396D01*
X340892Y247250D01*
X341319Y245104D01*
X342535Y243285D01*
X344354Y242069D01*
X346500Y241642D01*
X348646Y242069D01*
X350465Y243285D01*
X351681Y245104D01*
X352108Y247250D01*
X351681Y249396D01*
X350465Y251215D01*
X348646Y252431D01*
X346500Y252858D01*
D02*
G37*
G36*
X56750Y261686D02*
X54140Y261343D01*
X51707Y260335D01*
X49618Y258732D01*
X48015Y256643D01*
X47008Y254210D01*
X46664Y251600D01*
X47008Y248989D01*
X48015Y246557D01*
X49618Y244468D01*
X51707Y242865D01*
X54140Y241857D01*
X56750Y241514D01*
X59361Y241857D01*
X61793Y242865D01*
X63882Y244468D01*
X65485Y246557D01*
X66493Y248989D01*
X66837Y251600D01*
X66493Y254210D01*
X65485Y256643D01*
X63882Y258732D01*
X61793Y260335D01*
X59361Y261343D01*
X56750Y261686D01*
D02*
G37*
G36*
X192000Y252358D02*
X189854Y251931D01*
X188035Y250715D01*
X186819Y248896D01*
X186392Y246750D01*
X186819Y244604D01*
X188035Y242785D01*
X189854Y241569D01*
X192000Y241142D01*
X194146Y241569D01*
X195965Y242785D01*
X197181Y244604D01*
X197608Y246750D01*
X197181Y248896D01*
X195965Y250715D01*
X194146Y251931D01*
X192000Y252358D01*
D02*
G37*
G36*
X204500Y250108D02*
X202354Y249681D01*
X200535Y248465D01*
X199319Y246646D01*
X198892Y244500D01*
X199319Y242354D01*
X200535Y240535D01*
X202354Y239319D01*
X204500Y238892D01*
X206646Y239319D01*
X208465Y240535D01*
X209681Y242354D01*
X210108Y244500D01*
X209681Y246646D01*
X208465Y248465D01*
X206646Y249681D01*
X204500Y250108D01*
D02*
G37*
G36*
X281750Y244608D02*
X279604Y244181D01*
X277785Y242965D01*
X276569Y241146D01*
X276142Y239000D01*
X276477Y237319D01*
X275377Y236527D01*
X275146Y236681D01*
X273000Y237108D01*
X270854Y236681D01*
X269035Y235465D01*
X267819Y233646D01*
X267392Y231500D01*
X267819Y229354D01*
X269035Y227535D01*
X270854Y226319D01*
X273000Y225892D01*
X275146Y226319D01*
X276965Y227535D01*
X278181Y229354D01*
X278608Y231500D01*
X278273Y233181D01*
X279373Y233973D01*
X279604Y233819D01*
X281750Y233392D01*
X283896Y233819D01*
X285715Y235035D01*
X286931Y236854D01*
X287358Y239000D01*
X286931Y241146D01*
X285715Y242965D01*
X283896Y244181D01*
X281750Y244608D01*
D02*
G37*
G36*
X260037Y244145D02*
X257891Y243718D01*
X256072Y242502D01*
X254856Y240683D01*
X254429Y238537D01*
X254856Y236391D01*
X256072Y234572D01*
X257891Y233356D01*
X260037Y232929D01*
X262183Y233356D01*
X264002Y234572D01*
X265218Y236391D01*
X265645Y238537D01*
X265218Y240683D01*
X264002Y242502D01*
X262183Y243718D01*
X260037Y244145D01*
D02*
G37*
G36*
X204750Y229358D02*
X202604Y228931D01*
X200785Y227715D01*
X199569Y225896D01*
X199142Y223750D01*
X199569Y221604D01*
X200785Y219785D01*
X202604Y218569D01*
X204750Y218142D01*
X206896Y218569D01*
X208715Y219785D01*
X209931Y221604D01*
X210358Y223750D01*
X209931Y225896D01*
X208715Y227715D01*
X206896Y228931D01*
X204750Y229358D01*
D02*
G37*
G36*
X245000Y228608D02*
X242854Y228181D01*
X241035Y226965D01*
X239819Y225146D01*
X239392Y223000D01*
X239819Y220854D01*
X241035Y219035D01*
X242854Y217819D01*
X245000Y217392D01*
X247146Y217819D01*
X248965Y219035D01*
X250181Y220854D01*
X250608Y223000D01*
X250181Y225146D01*
X248965Y226965D01*
X247146Y228181D01*
X245000Y228608D01*
D02*
G37*
G36*
X66750Y236200D02*
X46750D01*
Y216200D01*
X66750D01*
Y236200D01*
D02*
G37*
G36*
X494500Y227358D02*
X492354Y226931D01*
X490535Y225715D01*
X489319Y223896D01*
X488892Y221750D01*
X489319Y219604D01*
X490535Y217785D01*
X492354Y216569D01*
X494500Y216142D01*
X496646Y216569D01*
X498465Y217785D01*
X499681Y219604D01*
X500108Y221750D01*
X499681Y223896D01*
X498465Y225715D01*
X496646Y226931D01*
X494500Y227358D01*
D02*
G37*
G36*
X384000Y223608D02*
X381854Y223181D01*
X380035Y221965D01*
X378819Y220146D01*
X378392Y218000D01*
X378819Y215854D01*
X380035Y214035D01*
X381854Y212819D01*
X384000Y212392D01*
X386146Y212819D01*
X387965Y214035D01*
X389181Y215854D01*
X389608Y218000D01*
X389181Y220146D01*
X387965Y221965D01*
X386146Y223181D01*
X384000Y223608D01*
D02*
G37*
G36*
X129250Y221608D02*
X127104Y221181D01*
X125285Y219965D01*
X124069Y218146D01*
X123642Y216000D01*
X124069Y213854D01*
X125285Y212035D01*
X127104Y210819D01*
X129250Y210392D01*
X131396Y210819D01*
X133215Y212035D01*
X134431Y213854D01*
X134858Y216000D01*
X134431Y218146D01*
X133215Y219965D01*
X131396Y221181D01*
X129250Y221608D01*
D02*
G37*
G36*
X390250Y212858D02*
X388104Y212431D01*
X386285Y211215D01*
X385069Y209396D01*
X384642Y207250D01*
X385069Y205104D01*
X386285Y203285D01*
X388104Y202069D01*
X390250Y201642D01*
X392396Y202069D01*
X394215Y203285D01*
X395431Y205104D01*
X395858Y207250D01*
X395431Y209396D01*
X394215Y211215D01*
X392396Y212431D01*
X390250Y212858D01*
D02*
G37*
G36*
X230000Y233858D02*
X227854Y233431D01*
X226035Y232215D01*
X224819Y230396D01*
X224392Y228250D01*
X224819Y226104D01*
X226035Y224285D01*
X226666Y223863D01*
Y206000D01*
X226920Y204724D01*
X227642Y203643D01*
X242290Y188995D01*
X242142Y188250D01*
X242569Y186104D01*
X243785Y184285D01*
X245604Y183069D01*
X247750Y182642D01*
X249896Y183069D01*
X251715Y184285D01*
X252931Y186104D01*
X253358Y188250D01*
X252931Y190396D01*
X251715Y192215D01*
X249896Y193431D01*
X247750Y193858D01*
X247005Y193710D01*
X233334Y207381D01*
Y223863D01*
X233965Y224285D01*
X235181Y226104D01*
X235608Y228250D01*
X235181Y230396D01*
X233965Y232215D01*
X232146Y233431D01*
X230000Y233858D01*
D02*
G37*
G36*
X83500Y174858D02*
X81354Y174431D01*
X79535Y173215D01*
X78319Y171396D01*
X77892Y169250D01*
X78319Y167104D01*
X79535Y165285D01*
X81354Y164069D01*
X83500Y163642D01*
X85646Y164069D01*
X87465Y165285D01*
X88681Y167104D01*
X89108Y169250D01*
X88681Y171396D01*
X87465Y173215D01*
X85646Y174431D01*
X83500Y174858D01*
D02*
G37*
G36*
X274750Y172858D02*
X272604Y172431D01*
X270785Y171215D01*
X269569Y169396D01*
X269142Y167250D01*
X269569Y165104D01*
X270785Y163285D01*
X272604Y162069D01*
X274750Y161642D01*
X276896Y162069D01*
X278715Y163285D01*
X279931Y165104D01*
X280358Y167250D01*
X279931Y169396D01*
X278715Y171215D01*
X276896Y172431D01*
X274750Y172858D01*
D02*
G37*
G36*
X96000Y144608D02*
X93854Y144181D01*
X92035Y142965D01*
X90819Y141146D01*
X90392Y139000D01*
X90819Y136854D01*
X92035Y135035D01*
X93854Y133819D01*
X96000Y133392D01*
X98146Y133819D01*
X99965Y135035D01*
X101181Y136854D01*
X101608Y139000D01*
X101181Y141146D01*
X99965Y142965D01*
X98146Y144181D01*
X96000Y144608D01*
D02*
G37*
G36*
X287000Y418858D02*
X284854Y418431D01*
X283035Y417215D01*
X281819Y415396D01*
X281392Y413250D01*
X281819Y411104D01*
X283035Y409285D01*
X284854Y408069D01*
X287000Y407642D01*
X289146Y408069D01*
X290744Y409137D01*
X290827Y409150D01*
X291148Y409172D01*
X338811D01*
X367672Y380311D01*
Y134818D01*
X367652Y134595D01*
X367637Y134494D01*
X366569Y132896D01*
X366142Y130750D01*
X366569Y128604D01*
X367785Y126785D01*
X369604Y125569D01*
X371750Y125142D01*
X373896Y125569D01*
X375715Y126785D01*
X376931Y128604D01*
X377358Y130750D01*
X376931Y132896D01*
X375863Y134494D01*
X375850Y134577D01*
X375828Y134898D01*
Y382000D01*
X375518Y383561D01*
X374634Y384884D01*
X374634Y384884D01*
X343384Y416134D01*
X342061Y417018D01*
X340500Y417328D01*
X340500Y417328D01*
X291068D01*
X290845Y417348D01*
X290744Y417363D01*
X289146Y418431D01*
X287000Y418858D01*
D02*
G37*
G36*
X110750Y118608D02*
X108604Y118181D01*
X106785Y116965D01*
X105569Y115146D01*
X105142Y113000D01*
X105569Y110854D01*
X106785Y109035D01*
X108604Y107819D01*
X110750Y107392D01*
X112896Y107819D01*
X114715Y109035D01*
X115931Y110854D01*
X116358Y113000D01*
X115931Y115146D01*
X114715Y116965D01*
X112896Y118181D01*
X110750Y118608D01*
D02*
G37*
G36*
X488020Y128536D02*
Y104770D01*
X511786D01*
X511428Y108409D01*
X509996Y113129D01*
X507671Y117479D01*
X504542Y121292D01*
X500729Y124421D01*
X496379Y126746D01*
X491659Y128178D01*
X488020Y128536D01*
D02*
G37*
G36*
X485480D02*
X481841Y128178D01*
X477121Y126746D01*
X472771Y124421D01*
X468958Y121292D01*
X465829Y117479D01*
X463504Y113129D01*
X462072Y108409D01*
X461714Y104770D01*
X485480D01*
Y128536D01*
D02*
G37*
G36*
X41520Y126536D02*
Y102770D01*
X65286D01*
X64928Y106409D01*
X63496Y111129D01*
X61171Y115479D01*
X58042Y119292D01*
X54229Y122421D01*
X49879Y124746D01*
X45159Y126178D01*
X41520Y126536D01*
D02*
G37*
G36*
X38980D02*
X35341Y126178D01*
X30621Y124746D01*
X26271Y122421D01*
X22458Y119292D01*
X19329Y115479D01*
X17004Y111129D01*
X15572Y106409D01*
X15214Y102770D01*
X38980D01*
Y126536D01*
D02*
G37*
G36*
X329000Y114625D02*
X325215Y114127D01*
X321687Y112666D01*
X318659Y110342D01*
X316334Y107313D01*
X314873Y103785D01*
X314375Y100000D01*
X314873Y96215D01*
X316334Y92687D01*
X318659Y89658D01*
X321687Y87334D01*
X325215Y85873D01*
X329000Y85375D01*
X332785Y85873D01*
X336313Y87334D01*
X339342Y89658D01*
X341666Y92687D01*
X343127Y96215D01*
X343625Y100000D01*
X343127Y103785D01*
X341666Y107313D01*
X339342Y110342D01*
X336313Y112666D01*
X332785Y114127D01*
X329000Y114625D01*
D02*
G37*
G36*
X279000D02*
X275215Y114127D01*
X271687Y112666D01*
X268659Y110342D01*
X266334Y107313D01*
X264873Y103785D01*
X264375Y100000D01*
X264873Y96215D01*
X266334Y92687D01*
X268659Y89658D01*
X271687Y87334D01*
X275215Y85873D01*
X279000Y85375D01*
X282785Y85873D01*
X286313Y87334D01*
X289342Y89658D01*
X291666Y92687D01*
X293127Y96215D01*
X293625Y100000D01*
X293127Y103785D01*
X291666Y107313D01*
X289342Y110342D01*
X286313Y112666D01*
X282785Y114127D01*
X279000Y114625D01*
D02*
G37*
G36*
X208250D02*
X204465Y114127D01*
X200937Y112666D01*
X197908Y110342D01*
X195584Y107313D01*
X194123Y103785D01*
X193625Y100000D01*
X194123Y96215D01*
X195584Y92687D01*
X197908Y89658D01*
X200937Y87334D01*
X204465Y85873D01*
X208250Y85375D01*
X212035Y85873D01*
X215563Y87334D01*
X218591Y89658D01*
X220916Y92687D01*
X222377Y96215D01*
X222875Y100000D01*
X222377Y103785D01*
X220916Y107313D01*
X218591Y110342D01*
X215563Y112666D01*
X212035Y114127D01*
X208250Y114625D01*
D02*
G37*
G36*
X158250D02*
X154465Y114127D01*
X150937Y112666D01*
X147908Y110342D01*
X145584Y107313D01*
X144123Y103785D01*
X143625Y100000D01*
X144123Y96215D01*
X145584Y92687D01*
X147908Y89658D01*
X150937Y87334D01*
X154465Y85873D01*
X158250Y85375D01*
X162035Y85873D01*
X165563Y87334D01*
X168591Y89658D01*
X170916Y92687D01*
X172377Y96215D01*
X172875Y100000D01*
X172377Y103785D01*
X170916Y107313D01*
X168591Y110342D01*
X165563Y112666D01*
X162035Y114127D01*
X158250Y114625D01*
D02*
G37*
G36*
X407500Y95608D02*
X405354Y95181D01*
X403535Y93965D01*
X402319Y92146D01*
X401892Y90000D01*
X402319Y87854D01*
X403535Y86035D01*
X405354Y84819D01*
X407500Y84392D01*
X409646Y84819D01*
X411465Y86035D01*
X412681Y87854D01*
X413108Y90000D01*
X412681Y92146D01*
X411465Y93965D01*
X409646Y95181D01*
X407500Y95608D01*
D02*
G37*
G36*
X511786Y102230D02*
X488020D01*
Y78464D01*
X491659Y78822D01*
X496379Y80254D01*
X500729Y82579D01*
X504542Y85708D01*
X507671Y89521D01*
X509996Y93871D01*
X511428Y98591D01*
X511786Y102230D01*
D02*
G37*
G36*
X485480D02*
X461714D01*
X462072Y98591D01*
X463504Y93871D01*
X465829Y89521D01*
X468958Y85708D01*
X472771Y82579D01*
X477121Y80254D01*
X481841Y78822D01*
X485480Y78464D01*
Y102230D01*
D02*
G37*
G36*
X65286Y100230D02*
X41520D01*
Y76464D01*
X45159Y76822D01*
X49879Y78254D01*
X54229Y80579D01*
X58042Y83708D01*
X61171Y87521D01*
X63496Y91871D01*
X64928Y96591D01*
X65286Y100230D01*
D02*
G37*
G36*
X38980D02*
X15214D01*
X15572Y96591D01*
X17004Y91871D01*
X19329Y87521D01*
X22458Y83708D01*
X26271Y80579D01*
X30621Y78254D01*
X35341Y76822D01*
X38980Y76464D01*
Y100230D01*
D02*
G37*
G36*
X355270Y64988D02*
Y51270D01*
X368988D01*
X368822Y52948D01*
X367962Y55783D01*
X366566Y58396D01*
X364686Y60686D01*
X362396Y62566D01*
X359783Y63962D01*
X356948Y64822D01*
X355270Y64988D01*
D02*
G37*
G36*
X352730D02*
X351052Y64822D01*
X348217Y63962D01*
X345604Y62566D01*
X343314Y60686D01*
X341434Y58396D01*
X340038Y55783D01*
X339178Y52948D01*
X339012Y51270D01*
X352730D01*
Y64988D01*
D02*
G37*
G36*
X234520D02*
Y51270D01*
X248238D01*
X248072Y52948D01*
X247212Y55783D01*
X245816Y58396D01*
X243936Y60686D01*
X241646Y62566D01*
X239033Y63962D01*
X236198Y64822D01*
X234520Y64988D01*
D02*
G37*
G36*
X231980D02*
X230302Y64822D01*
X227467Y63962D01*
X224854Y62566D01*
X222564Y60686D01*
X220684Y58396D01*
X219288Y55783D01*
X218428Y52948D01*
X218262Y51270D01*
X231980D01*
Y64988D01*
D02*
G37*
G36*
X304000Y64625D02*
X300215Y64127D01*
X296687Y62666D01*
X293659Y60342D01*
X291334Y57313D01*
X289873Y53785D01*
X289375Y50000D01*
X289873Y46215D01*
X291334Y42687D01*
X293659Y39659D01*
X296687Y37334D01*
X300215Y35873D01*
X304000Y35375D01*
X307785Y35873D01*
X311313Y37334D01*
X314342Y39659D01*
X316666Y42687D01*
X318127Y46215D01*
X318625Y50000D01*
X318127Y53785D01*
X316666Y57313D01*
X314342Y60342D01*
X311313Y62666D01*
X307785Y64127D01*
X304000Y64625D01*
D02*
G37*
G36*
X183250D02*
X179465Y64127D01*
X175937Y62666D01*
X172908Y60342D01*
X170584Y57313D01*
X169123Y53785D01*
X168625Y50000D01*
X169123Y46215D01*
X170584Y42687D01*
X172908Y39659D01*
X175937Y37334D01*
X179465Y35873D01*
X183250Y35375D01*
X187035Y35873D01*
X190563Y37334D01*
X193591Y39659D01*
X195916Y42687D01*
X197377Y46215D01*
X197875Y50000D01*
X197377Y53785D01*
X195916Y57313D01*
X193591Y60342D01*
X190563Y62666D01*
X187035Y64127D01*
X183250Y64625D01*
D02*
G37*
G36*
X368988Y48730D02*
X355270D01*
Y35012D01*
X356948Y35178D01*
X359783Y36038D01*
X362396Y37434D01*
X364686Y39314D01*
X366566Y41604D01*
X367962Y44217D01*
X368822Y47052D01*
X368988Y48730D01*
D02*
G37*
G36*
X352730D02*
X339012D01*
X339178Y47052D01*
X340038Y44217D01*
X341434Y41604D01*
X343314Y39314D01*
X345604Y37434D01*
X348217Y36038D01*
X351052Y35178D01*
X352730Y35012D01*
Y48730D01*
D02*
G37*
G36*
X248238D02*
X234520D01*
Y35012D01*
X236198Y35178D01*
X239033Y36038D01*
X241646Y37434D01*
X243936Y39314D01*
X245816Y41604D01*
X247212Y44217D01*
X248072Y47052D01*
X248238Y48730D01*
D02*
G37*
G36*
X231980D02*
X218262D01*
X218428Y47052D01*
X219288Y44217D01*
X220684Y41604D01*
X222564Y39314D01*
X224854Y37434D01*
X227467Y36038D01*
X230302Y35178D01*
X231980Y35012D01*
Y48730D01*
D02*
G37*
%LPD*%
G36*
X169513Y517081D02*
X169555Y516931D01*
X169626Y516764D01*
X169726Y516582D01*
X169854Y516383D01*
X170012Y516168D01*
X170413Y515690D01*
X170930Y515148D01*
X168102Y512320D01*
X167823Y512593D01*
X167082Y513238D01*
X166867Y513396D01*
X166668Y513524D01*
X166486Y513624D01*
X166320Y513695D01*
X166169Y513737D01*
X166035Y513750D01*
X169500Y517215D01*
X169513Y517081D01*
D02*
G37*
G36*
X165965Y513750D02*
X165831Y513737D01*
X165681Y513695D01*
X165515Y513624D01*
X165332Y513524D01*
X165133Y513396D01*
X164919Y513238D01*
X164441Y512837D01*
X163899Y512320D01*
X161070Y515148D01*
X161343Y515427D01*
X161988Y516168D01*
X162146Y516383D01*
X162274Y516582D01*
X162374Y516764D01*
X162445Y516931D01*
X162487Y517081D01*
X162500Y517215D01*
X165965Y513750D01*
D02*
G37*
G36*
X298678Y491907D02*
X299419Y491262D01*
X299633Y491104D01*
X299832Y490976D01*
X300014Y490876D01*
X300181Y490805D01*
X300331Y490763D01*
X300465Y490750D01*
X297000Y487285D01*
X296987Y487419D01*
X296945Y487569D01*
X296874Y487736D01*
X296774Y487918D01*
X296646Y488117D01*
X296488Y488331D01*
X296087Y488809D01*
X295570Y489352D01*
X298398Y492180D01*
X298678Y491907D01*
D02*
G37*
G36*
X153004Y463582D02*
X153072Y462601D01*
X153112Y462338D01*
X153162Y462107D01*
X153220Y461907D01*
X153288Y461740D01*
X153364Y461604D01*
X153450Y461499D01*
X148550D01*
X148635Y461604D01*
X148712Y461740D01*
X148779Y461907D01*
X148838Y462107D01*
X148888Y462338D01*
X148928Y462601D01*
X148982Y463223D01*
X149000Y463972D01*
X153000D01*
X153004Y463582D01*
D02*
G37*
G36*
X187970Y461775D02*
X188717Y461144D01*
X188937Y460995D01*
X189141Y460876D01*
X189331Y460787D01*
X189506Y460728D01*
X189666Y460700D01*
X189811Y460702D01*
X186770Y456861D01*
X186745Y456971D01*
X186692Y457100D01*
X186612Y457248D01*
X186503Y457415D01*
X186367Y457601D01*
X186011Y458030D01*
X185542Y458534D01*
X185266Y458814D01*
X187691Y462046D01*
X187970Y461775D01*
D02*
G37*
G36*
X153604Y461365D02*
X153740Y461288D01*
X153907Y461221D01*
X154107Y461162D01*
X154338Y461113D01*
X154601Y461072D01*
X155223Y461018D01*
X155972Y461000D01*
Y457000D01*
X155582Y456996D01*
X154601Y456928D01*
X154338Y456888D01*
X154107Y456838D01*
X153907Y456780D01*
X153740Y456712D01*
X153604Y456636D01*
X153499Y456550D01*
Y461450D01*
X153604Y461365D01*
D02*
G37*
G36*
X289604Y415615D02*
X289739Y415538D01*
X289907Y415471D01*
X290107Y415412D01*
X290338Y415363D01*
X290601Y415322D01*
X291223Y415268D01*
X291972Y415250D01*
Y411250D01*
X291582Y411245D01*
X290601Y411178D01*
X290338Y411138D01*
X290107Y411088D01*
X289907Y411030D01*
X289739Y410962D01*
X289604Y410886D01*
X289499Y410800D01*
Y415700D01*
X289604Y415615D01*
D02*
G37*
G36*
X373755Y135332D02*
X373822Y134351D01*
X373862Y134088D01*
X373912Y133857D01*
X373970Y133657D01*
X374038Y133490D01*
X374114Y133354D01*
X374200Y133250D01*
X369300D01*
X369385Y133354D01*
X369462Y133490D01*
X369529Y133657D01*
X369588Y133857D01*
X369637Y134088D01*
X369678Y134351D01*
X369732Y134973D01*
X369750Y135722D01*
X373750D01*
X373755Y135332D01*
D02*
G37*
D15*
X266250Y421500D02*
Y456500D01*
X293500Y230000D02*
Y295250D01*
X263750Y419000D02*
X266250Y421500D01*
X230000Y206000D02*
Y228250D01*
Y206000D02*
X247750Y188250D01*
X300270Y239750D02*
X350750Y189270D01*
X263750Y325000D02*
X293500Y295250D01*
X350750Y131500D02*
Y189270D01*
X263750Y325000D02*
Y419000D01*
X220250Y413750D02*
X247250D01*
X201500Y432500D02*
Y445500D01*
Y432500D02*
X220250Y413750D01*
X205500Y539750D02*
X232500Y512750D01*
X171250Y539750D02*
X205500D01*
X136250Y504750D02*
X171250Y539750D01*
X136250Y457750D02*
Y504750D01*
Y457750D02*
X150750Y443250D01*
X179500D01*
X190250Y456750D02*
Y457230D01*
Y456750D02*
X201500Y445500D01*
D80*
X371750Y130750D02*
Y382000D01*
X340500Y413250D02*
X371750Y382000D01*
X287000Y413250D02*
X340500D01*
X183159Y463750D02*
X189679Y457230D01*
X190250D01*
X175000Y463750D02*
X183159D01*
X151000Y459000D02*
X170250D01*
X175000Y463750D01*
X151000Y502250D02*
X166000Y517250D01*
X151000Y459000D02*
Y502250D01*
X166000Y517250D02*
X179750Y503500D01*
X284250D02*
X300500Y487250D01*
X179750Y503500D02*
X284250D01*
D83*
X233250Y50000D02*
D03*
X354000D02*
D03*
X216500Y626000D02*
D03*
D84*
X56750Y277000D02*
D03*
X353250Y375650D02*
D03*
D86*
X40250Y451750D02*
D03*
Y101500D02*
D03*
X486750Y103500D02*
D03*
Y484000D02*
D03*
D87*
X326000Y655500D02*
D03*
X422000Y258500D02*
D03*
D91*
X25300Y592500D02*
D03*
X180200D02*
D03*
D93*
X58350Y534100D02*
D03*
D95*
X27750Y338250D02*
D03*
D97*
X190250Y315250D02*
D03*
X232250Y242750D02*
D03*
X511001Y675751D02*
D03*
Y657751D02*
D03*
Y639751D02*
D03*
Y621751D02*
D03*
Y603751D02*
D03*
X502001Y675751D02*
D03*
X506501Y666751D02*
D03*
X502001Y657751D02*
D03*
X506501Y648751D02*
D03*
X502001Y639751D02*
D03*
X506501Y630751D02*
D03*
X502001Y621751D02*
D03*
X506501Y612751D02*
D03*
X502001Y603751D02*
D03*
X376001Y675751D02*
D03*
X380501Y666751D02*
D03*
X376001Y657751D02*
D03*
X380501Y648751D02*
D03*
X376001Y639751D02*
D03*
X380501Y630751D02*
D03*
X376001Y621751D02*
D03*
X380501Y612751D02*
D03*
X376001Y603751D02*
D03*
X367001Y675751D02*
D03*
X371501Y666751D02*
D03*
X367001Y657751D02*
D03*
X371501Y648751D02*
D03*
X367001Y639751D02*
D03*
X371501Y630751D02*
D03*
X367001Y621751D02*
D03*
X371501Y612751D02*
D03*
D98*
X230000Y228250D02*
D03*
X247750Y188250D02*
D03*
X293500Y230000D02*
D03*
X371750Y130750D02*
D03*
X350750Y131500D02*
D03*
X300270Y239750D02*
D03*
X145750Y355500D02*
D03*
X232750Y458750D02*
D03*
X224250Y467250D02*
D03*
X215500Y459000D02*
D03*
X287000Y413250D02*
D03*
X266250Y456500D02*
D03*
X190250Y457230D02*
D03*
X300500Y487250D02*
D03*
X247250Y413750D02*
D03*
X166000Y517250D02*
D03*
X179500Y443250D02*
D03*
X151000Y459000D02*
D03*
X232500Y512750D02*
D03*
M02*
